<svg width="20" height="20" viewBox="0 0 20 20" fill="none" xmlns="http://www.w3.org/2000/svg">
<path fill-rule="evenodd" clip-rule="evenodd" d="M11.9123 1.98757C10.7645 1.18416 9.2369 1.18416 8.08917 1.98757L2.35786 5.99949C1.39234 6.67535 0.855489 7.81083 0.94588 8.98592L1.5334 16.6236C1.6442 18.0641 2.94937 19.1111 4.37959 18.9068L7.02093 18.5294C8.25255 18.3535 9.16738 17.2987 9.16738 16.0545V15C9.16738 14.5398 9.54047 14.1667 10.0007 14.1667C10.4609 14.1667 10.834 14.5398 10.834 15V16.0545C10.834 17.2987 11.7489 18.3535 12.9805 18.5294L15.6218 18.9068C17.0521 19.1111 18.3572 18.0641 18.468 16.6236L19.0555 8.98592C19.1459 7.81083 18.6091 6.67535 17.6436 5.99949L11.9123 1.98757ZM9.04494 3.35296C9.61881 2.95125 10.3826 2.95125 10.9565 3.35296L16.6878 7.36488C17.1706 7.70281 17.439 8.27055 17.3938 8.85809L16.8063 16.4958C16.7693 16.976 16.3343 17.3249 15.8575 17.2568L13.2162 16.8795C12.8057 16.8209 12.5007 16.4693 12.5007 16.0545V15C12.5007 13.6193 11.3814 12.5 10.0007 12.5C8.62 12.5 7.50071 13.6193 7.50071 15V16.0545C7.50071 16.4693 7.19577 16.8209 6.78523 16.8795L4.14388 17.2568C3.66715 17.3249 3.23209 16.976 3.19515 16.4958L2.60764 8.85809C2.56244 8.27055 2.83087 7.70281 3.31363 7.36488L9.04494 3.35296Z" fill="#667185"/>
</svg>
