<svg width="20" height="20" viewBox="0 0 20 20" fill="none" xmlns="http://www.w3.org/2000/svg">
<path fill-rule="evenodd" clip-rule="evenodd" d="M6.6665 0.833374C7.12674 0.833374 7.49984 1.20647 7.49984 1.66671V2.50004H12.4998V1.66671C12.4998 1.20647 12.8729 0.833374 13.3332 0.833374C13.7934 0.833374 14.1665 1.20647 14.1665 1.66671V2.50004H14.9998C16.8408 2.50004 18.3332 3.99242 18.3332 5.83337V15C18.3332 16.841 16.8408 18.3334 14.9998 18.3334H4.99984C3.15889 18.3334 1.6665 16.841 1.6665 15V5.83337C1.6665 3.99242 3.15889 2.50004 4.99984 2.50004H5.83317V1.66671C5.83317 1.20647 6.20627 0.833374 6.6665 0.833374ZM12.4998 4.16671C12.4998 4.62694 12.8729 5.00004 13.3332 5.00004C13.7934 5.00004 14.1665 4.62694 14.1665 4.16671H14.9998C15.9203 4.16671 16.6665 4.9129 16.6665 5.83337V6.25004H3.33317V5.83337C3.33317 4.9129 4.07936 4.16671 4.99984 4.16671H5.83317C5.83317 4.62694 6.20627 5.00004 6.6665 5.00004C7.12674 5.00004 7.49984 4.62694 7.49984 4.16671H12.4998ZM16.6665 7.91671H3.33317V15C3.33317 15.9205 4.07936 16.6667 4.99984 16.6667H14.9998C15.9203 16.6667 16.6665 15.9205 16.6665 15V7.91671Z" fill="#AAA5F8"/>
</svg>
