<svg width="20" height="20" viewBox="0 0 20 20" fill="none" xmlns="http://www.w3.org/2000/svg">
<path fill-rule="evenodd" clip-rule="evenodd" d="M9.99996 2.5C5.39759 2.5 1.66663 6.23096 1.66663 10.8333V13.3201C1.66646 13.3296 1.66646 13.3391 1.66663 13.3486V15.3431C1.66663 16.5343 2.63229 17.5 3.82349 17.5C5.01469 17.5 5.98035 16.5343 5.98035 15.3431V13.5422C5.98035 11.9241 4.55131 11.1746 3.33329 11.4231V10.8333C3.33329 7.15143 6.31806 4.16667 9.99996 4.16667C13.6819 4.16667 16.6666 7.15143 16.6666 10.8333V11.4143C15.449 11.1655 14.0196 11.9126 14.0196 13.5324V15.3431C14.0196 15.7402 14.1269 16.1122 14.314 16.4317C13.5764 16.7984 12.5699 17.0834 11.25 17.0834C10.7897 17.0834 10.4166 17.4565 10.4166 17.9167C10.4166 18.3769 10.7897 18.75 11.25 18.75C13.2865 18.75 14.7962 18.1755 15.8303 17.4724C15.943 17.4906 16.0586 17.5 16.1764 17.5C17.3676 17.5 18.3333 16.5343 18.3333 15.3431V13.3482C18.3334 13.339 18.3334 13.3298 18.3333 13.3206V10.8333C18.3333 6.23096 14.6023 2.5 9.99996 2.5ZM16.0433 15.815C16.0856 15.827 16.1303 15.8333 16.1764 15.8333C16.4472 15.8333 16.6666 15.6139 16.6666 15.3431V13.4069C16.6324 13.2496 16.5615 13.1698 16.4968 13.1234C16.4126 13.063 16.2882 13.0255 16.1466 13.0361C16.005 13.0468 15.8876 13.1025 15.8134 13.1748C15.7504 13.2361 15.6862 13.3386 15.6862 13.5324V15.3431C15.6862 15.5258 15.7862 15.6852 15.9344 15.7695C15.9716 15.782 16.0079 15.7972 16.0433 15.815ZM3.33329 15.3431V13.4106C3.36877 13.2559 3.43951 13.1771 3.50431 13.1311C3.58894 13.0711 3.71331 13.0342 3.85446 13.0453C3.99561 13.0565 4.11266 13.1124 4.18682 13.185C4.24982 13.2466 4.31369 13.3493 4.31369 13.5422V15.3431C4.31369 15.6139 4.09422 15.8333 3.82349 15.8333C3.55276 15.8333 3.33329 15.6139 3.33329 15.3431Z" fill="#AAA5F8"/>
</svg>
