<svg width="20" height="20" viewBox="0 0 20 20" fill="none" xmlns="http://www.w3.org/2000/svg">
<path d="M6.24984 3.33335C6.71008 3.33335 7.08317 2.96026 7.08317 2.50002C7.08317 2.03978 6.71008 1.66669 6.24984 1.66669H4.99984C3.15889 1.66669 1.6665 3.15907 1.6665 5.00002V15C1.6665 16.841 3.15889 18.3334 4.99984 18.3334H6.24984C6.71007 18.3334 7.08317 17.9603 7.08317 17.5C7.08317 17.0398 6.71007 16.6667 6.24984 16.6667H4.99984C4.07936 16.6667 3.33317 15.9205 3.33317 15L3.33317 5.00002C3.33317 4.07955 4.07936 3.33335 4.99984 3.33335H6.24984Z" fill="#AAA5F8"/>
<path d="M18.9224 10.5893C19.2479 10.2638 19.2479 9.7362 18.9224 9.41077L15.5891 6.07743C15.2637 5.75199 14.736 5.75199 14.4106 6.07743C14.0851 6.40287 14.0851 6.93051 14.4106 7.25594L16.3213 9.16669L6.6665 9.16669C6.20627 9.16669 5.83317 9.53978 5.83317 10C5.83317 10.4603 6.20627 10.8334 6.6665 10.8334L16.3213 10.8334L14.4106 12.7441C14.0851 13.0695 14.0851 13.5972 14.4106 13.9226C14.736 14.248 15.2637 14.248 15.5891 13.9226L18.9224 10.5893Z" fill="#AAA5F8"/>
</svg>
