<svg width="30" height="30" viewBox="0 0 30 30" fill="none" xmlns="http://www.w3.org/2000/svg">
<path d="M15.1669 5.50004C15.1669 4.85571 14.6446 4.33337 14.0002 4.33337C13.3559 4.33337 12.8336 4.85571 12.8336 5.50004V7.25004C12.8336 7.2824 12.8349 7.31445 12.8375 7.34614C9.52488 7.89974 7.00023 10.7789 7.00023 14.2488V18.9167C7.00023 19.5003 6.52177 20.5122 5.99817 21.445C5.26139 22.7574 5.39633 24.3398 6.80295 24.8754C8.21768 25.4141 10.4807 25.9167 14.0002 25.9167C17.5198 25.9167 19.7828 25.4141 21.1975 24.8754C22.6041 24.3398 22.7391 22.7574 22.0023 21.445C21.4787 20.5122 21.0002 19.5003 21.0002 18.9167V14.2493C21.0002 10.7795 18.4756 7.89985 15.163 7.34615C15.1656 7.31446 15.1669 7.2824 15.1669 7.25004V5.50004Z" fill="#AAA5F8"/>
<path d="M10.407 26.8787C10.4506 26.9167 10.5032 26.9611 10.5644 27.0101C10.7397 27.1503 10.9903 27.3321 11.3068 27.513C11.9352 27.8721 12.8642 28.2501 14.0003 28.2501C15.1363 28.2501 16.0653 27.8721 16.6937 27.513C17.0103 27.3321 17.2608 27.1503 17.4361 27.0101C17.4973 26.9611 17.5499 26.9167 17.5935 26.8787C16.5734 27.0057 15.3839 27.0834 14.0003 27.0834C12.6166 27.0834 11.4271 27.0057 10.407 26.8787Z" fill="#AAA5F8"/>
<rect x="15" width="15" height="16" rx="7.5" fill="#473BF0"/>
<path d="M19.5149 10.6506V9.60298L22.6009 4.72727H23.4744V6.21875H22.9418L20.8643 9.51065V9.56747H25.1719V10.6506H19.5149ZM22.9844 12V10.331L22.9986 9.86222V4.72727H24.2415V12H22.9844Z" fill="white"/>
</svg>
