<svg width="14" height="19" viewBox="0 0 14 19" fill="none" xmlns="http://www.w3.org/2000/svg">
<path fill-rule="evenodd" clip-rule="evenodd" d="M7.00016 0.666626C4.69898 0.666626 2.8335 2.53211 2.8335 4.83329C2.8335 7.13448 4.69898 8.99996 7.00016 8.99996C9.30135 8.99996 11.1668 7.13448 11.1668 4.83329C11.1668 2.53211 9.30135 0.666626 7.00016 0.666626ZM4.50016 4.83329C4.50016 3.45258 5.61945 2.33329 7.00016 2.33329C8.38087 2.33329 9.50016 3.45258 9.50016 4.83329C9.50016 6.214 8.38087 7.33329 7.00016 7.33329C5.61945 7.33329 4.50016 6.214 4.50016 4.83329Z" fill="#AAA5F8"/>
<path fill-rule="evenodd" clip-rule="evenodd" d="M7.00016 18.1666C5.71641 18.1666 3.85834 17.8751 2.46302 17.2644C1.77802 16.9646 1.08137 16.5356 0.676624 15.9145C0.46376 15.5878 0.329191 15.203 0.333601 14.7735C0.337972 14.3478 0.478029 13.94 0.713425 13.5606C1.85459 11.7213 4.18915 9.83329 7.00016 9.83329C9.81116 9.83329 12.1457 11.7213 13.2869 13.5606C13.5223 13.94 13.6624 14.3478 13.6667 14.7735C13.6711 15.2031 13.5366 15.5878 13.3237 15.9145C12.919 16.5356 12.2223 16.9646 11.5373 17.2644C10.142 17.8751 8.28391 18.1666 7.00016 18.1666ZM2.12966 14.4393C2.01993 14.6162 2.0008 14.7297 2.00018 14.7906C1.9996 14.8475 2.01422 14.9144 2.07297 15.0045C2.21145 15.217 2.54772 15.4822 3.13127 15.7376C4.27303 16.2373 5.89453 16.5 7.00016 16.5C8.10579 16.5 9.72729 16.2373 10.8691 15.7376C11.4526 15.4822 11.7889 15.217 11.9274 15.0045C11.9861 14.9144 12.0007 14.8475 12.0001 14.7906C11.9995 14.7297 11.9804 14.6162 11.8707 14.4393C10.9355 12.9321 9.07044 11.5 7.00016 11.5C4.92988 11.5 3.06478 12.9321 2.12966 14.4393Z" fill="#AAA5F8"/>
</svg>
