<svg width="18" height="20" viewBox="0 0 18 20" fill="none" xmlns="http://www.w3.org/2000/svg">
<path fill-rule="evenodd" clip-rule="evenodd" d="M8.99948 5C6.23806 5 3.99948 7.23858 3.99948 10C3.99948 12.7614 6.23806 15 8.99948 15C11.7609 15 13.9995 12.7614 13.9995 10C13.9995 7.23858 11.7609 5 8.99948 5ZM5.66615 10C5.66615 8.15906 7.15854 6.66667 8.99948 6.66667C10.8404 6.66667 12.3328 8.15906 12.3328 10C12.3328 11.841 10.8404 13.3333 8.99948 13.3333C7.15854 13.3333 5.66615 11.841 5.66615 10Z" fill="#AAA5F8"/>
<path fill-rule="evenodd" clip-rule="evenodd" d="M11.0843 1.69076C9.92189 0.566216 8.07708 0.566216 6.91464 1.69076C6.61939 1.97638 6.20885 2.10977 5.8021 2.05224C4.20069 1.82573 2.7082 2.91009 2.42876 4.50312C2.35778 4.90774 2.10405 5.25697 1.74117 5.4495C0.312458 6.20754 -0.257621 7.96207 0.452667 9.41511C0.633077 9.78417 0.633077 10.2158 0.452667 10.5849C-0.257622 12.0379 0.312458 13.7925 1.74117 14.5505C2.10405 14.743 2.35778 15.0923 2.42876 15.4969C2.7082 17.0899 4.20069 18.1743 5.8021 17.9478C6.20885 17.8902 6.61939 18.0236 6.91464 18.3093C8.07708 19.4338 9.92189 19.4338 11.0843 18.3093C11.3796 18.0236 11.7901 17.8902 12.1969 17.9478C13.7983 18.1743 15.2908 17.0899 15.5702 15.4969C15.6412 15.0923 15.8949 14.743 16.2578 14.5505C17.6865 13.7925 18.2566 12.0379 17.5463 10.5849C17.3659 10.2158 17.3659 9.78417 17.5463 9.41511C18.2566 7.96207 17.6865 6.20754 16.2578 5.4495C15.8949 5.25697 15.6412 4.90774 15.5702 4.50312C15.2908 2.91009 13.7983 1.82573 12.1969 2.05224C11.7901 2.10977 11.3796 1.97638 11.0843 1.69076ZM8.07347 2.88863C8.58978 2.38915 9.40919 2.38915 9.9255 2.88863C10.5902 3.53169 11.5145 3.83201 12.4303 3.70248C13.1416 3.60187 13.8045 4.08351 13.9286 4.79108C14.0884 5.70205 14.6596 6.4883 15.4766 6.92177C16.1112 7.25847 16.3644 8.03777 16.049 8.68316C15.6428 9.51408 15.6428 10.4859 16.049 11.3168C16.3644 11.9622 16.1112 12.7415 15.4766 13.0782C14.6596 13.5117 14.0884 14.298 13.9286 15.2089C13.8045 15.9165 13.1416 16.3981 12.4303 16.2975C11.5145 16.168 10.5902 16.4683 9.9255 17.1114C9.40919 17.6109 8.58978 17.6109 8.07347 17.1114C7.40874 16.4683 6.48445 16.168 5.56869 16.2975C4.85739 16.3981 4.19448 15.9165 4.07036 15.2089C3.91056 14.298 3.33932 13.5117 2.52232 13.0782C1.88773 12.7415 1.63452 11.9622 1.95001 11.3168C2.35618 10.4859 2.35618 9.51408 1.95001 8.68316C1.63452 8.03777 1.88773 7.25847 2.52232 6.92177C3.33932 6.4883 3.91056 5.70205 4.07036 4.79108C4.19448 4.08351 4.85739 3.60187 5.56869 3.70248C6.48445 3.83201 7.40874 3.53169 8.07347 2.88863Z" fill="#AAA5F8"/>
</svg>
